<?xml version="1.0" encoding="utf-8"?>
<!-- Generator: Adobe Illustrator 28.0.0, SVG Export Plug-In . SVG Version: 6.00 Build 0)  -->
<svg version="1.1" id="Layer_1" xmlns="http://www.w3.org/2000/svg" xmlns:xlink="http://www.w3.org/1999/xlink" x="0px" y="0px"
	 viewBox="0 0 743.9 506.3" style="enable-background:new 0 0 743.9 506.3;" xml:space="preserve">
<style type="text/css">
	.st0{fill-rule:evenodd;clip-rule:evenodd;fill:#F7F7F7;}
	.st1{opacity:5.000000e-02;}
	.st2{fill:none;stroke:#17181C;stroke-width:0.9973;stroke-linecap:round;stroke-linejoin:round;stroke-miterlimit:10;}
	.st3{fill:#E2E2E1;stroke:#17181C;stroke-width:0.9973;stroke-linecap:round;stroke-linejoin:round;stroke-miterlimit:10;}
	.st4{fill:#5C7D88;stroke:#17181C;stroke-width:0.9973;stroke-linecap:round;stroke-linejoin:round;stroke-miterlimit:10;}
	.st5{fill:#FA8069;stroke:#17181C;stroke-width:0.9973;stroke-linecap:round;stroke-linejoin:round;stroke-miterlimit:10;}
	.st6{fill:#DCE8E6;stroke:#17181C;stroke-width:0.9973;stroke-linecap:round;stroke-linejoin:round;stroke-miterlimit:10;}
	.st7{fill:#F4BB1E;stroke:#17181C;stroke-width:0.9973;stroke-linecap:round;stroke-linejoin:round;stroke-miterlimit:10;}
	.st8{fill:#F9CFCB;stroke:#17181C;stroke-width:0.9973;stroke-linecap:round;stroke-linejoin:round;stroke-miterlimit:10;}
	.st9{fill:#EAEAEA;}
	.st10{fill:#CDC9C9;}
	.st11{fill:#ADAAAA;}
	.st12{fill:#FF8F77;}
	.st13{fill:#2B2A39;}
	.st14{fill:#FE9077;}
	.st15{fill:#BC6658;}
	.st16{fill:#140000;}
	.st17{fill:#F77863;}
	.st18{fill:#B2C5CE;}
	.st19{fill:#9AADB7;}
	.st20{fill:#9A96D6;}
	.st21{fill:#748991;}
	.st22{fill:#FF8F76;}
	.st23{fill:#3A2C36;}
	.st24{fill:#343834;}
	.st25{fill:#EBEEF6;}
	.st26{fill:#2C2B3A;}
	.st27{fill:#273D7C;}
	.st28{fill:#23151F;}
	.st29{fill:#F76A52;}
	.st30{fill:#FFFFFF;}
	.st31{fill:#BAC3D1;}
	.st32{fill:#D6DBE6;}
	.st33{fill:#2D2C3A;}
	.st34{fill:#423F5A;}
	.st35{fill:#66485A;}
	.st36{fill:#260918;}
	.st37{fill:#BA3A1C;}
	.st38{fill:#513647;}
	.st39{fill:none;stroke:#343834;stroke-width:3.214;stroke-miterlimit:10;}
</style>
<rect x="1" y="1.3" class="st0" width="741" height="504.8"/>
<g class="st1">
	<g>
		<rect x="59.1" y="422.1" class="st2" width="613.3" height="19.9"/>
		<rect x="59.1" y="314.4" class="st2" width="613.3" height="19.6"/>
		<rect x="59.1" y="208.3" class="st2" width="613.3" height="19.6"/>
		<rect x="59.1" y="102.3" class="st2" width="613.3" height="19.6"/>
		<path class="st3" d="M662.2,422.1h-67c-4,0-7.2-3.2-7.2-7.2v0c0-4,3.2-7.2,7.2-7.2h67c1,0,1.8,0.8,1.8,1.8v10.8
			C664,421.3,663.2,422.1,662.2,422.1z"/>
		<path class="st4" d="M442.1,208.3h-41.9c-3.5,0-6.3-2.8-6.3-6.3v0c0-3.5,2.8-6.3,6.3-6.3h41.9c0.7,0,1.3,0.6,1.3,1.3v10.1
			C443.4,207.8,442.8,208.3,442.1,208.3z"/>
		<rect x="136.7" y="32.4" class="st2" width="12.1" height="69.9"/>
		<rect x="136.7" y="77.1" class="st5" width="12.1" height="10.9"/>
		<rect x="160.8" y="35" class="st6" width="14.9" height="67.3"/>
		<rect x="175.8" y="43.5" class="st2" width="7.9" height="58.8"/>
		<rect x="183.7" y="32.4" class="st2" width="10.4" height="69.9"/>
		<rect x="194.1" y="40" class="st7" width="8.1" height="62.2"/>
		<rect x="202.2" y="40" class="st4" width="11.4" height="62.2"/>
		<rect x="213.6" y="32.4" class="st6" width="13.6" height="69.9"/>
		<rect x="362.3" y="32.4" class="st2" width="14.7" height="69.9"/>
		<rect x="394" y="39.4" class="st2" width="10.3" height="62.8"/>
		<rect x="404.3" y="39.4" class="st6" width="7.7" height="62.8"/>
		<rect x="424.6" y="39.4" class="st6" width="6.7" height="62.8"/>
		<rect x="481.5" y="39.4" class="st2" width="6.7" height="62.8"/>
		<rect x="431.3" y="53.2" class="st2" width="11.2" height="49"/>
		<rect x="431.3" y="46.3" class="st6" width="11.2" height="6.9"/>
		<rect x="412" y="32.4" class="st2" width="12.6" height="69.9"/>
		<rect x="442.5" y="32.4" class="st4" width="11.6" height="69.9"/>
		<rect x="454.1" y="32.4" class="st2" width="14.6" height="69.9"/>
		<rect x="468.7" y="32.4" class="st3" width="12.8" height="69.9"/>
		<rect x="488.1" y="32.4" class="st2" width="10.9" height="69.9"/>
		<rect x="563.5" y="32.4" class="st2" width="8" height="69.9"/>
		<rect x="581.1" y="32.4" class="st3" width="8" height="69.9"/>
		<rect x="514" y="32.4" class="st7" width="11.4" height="69.9"/>
		<rect x="599.2" y="43.5" class="st7" width="12.2" height="58.8"/>
		<rect x="537.7" y="33.4" class="st2" width="12.5" height="68.8"/>
		<rect x="550.2" y="39.4" class="st2" width="13.3" height="62.8"/>
		<rect x="550.2" y="64.7" class="st7" width="13.3" height="7.5"/>
		<rect x="589.1" y="64.7" class="st6" width="10.1" height="7.5"/>
		<rect x="571.5" y="39.4" class="st2" width="9.6" height="62.8"/>
		<rect x="589.1" y="39.4" class="st2" width="10.1" height="62.8"/>
		<rect x="525.4" y="29.9" class="st6" width="12.3" height="72.4"/>
		<rect x="499" y="32.4" class="st5" width="14.9" height="69.9"/>
		<rect x="377" y="78.1" class="st8" width="16.9" height="24.2"/>
		<rect x="377" y="32.4" class="st5" width="16.9" height="45.7"/>
		<rect x="227.1" y="32.4" class="st2" width="10" height="69.9"/>
		<rect x="94.2" y="140.8" class="st2" width="16.7" height="67.6"/>
		<rect x="85" y="146.5" class="st2" width="9.2" height="61.8"/>
		<rect x="125.6" y="146.5" class="st2" width="9.2" height="61.8"/>
		<rect x="134.8" y="140.8" class="st2" width="10.5" height="67.6"/>
		<rect x="188.6" y="140.8" class="st7" width="12.8" height="67.6"/>
		<rect x="218.4" y="140.8" class="st6" width="10.3" height="67.6"/>
		<rect x="240.7" y="140.8" class="st2" width="16.6" height="67.6"/>
		<rect x="257.3" y="149.3" class="st2" width="12.8" height="59.1"/>
		<rect x="450.4" y="146.6" class="st6" width="18.9" height="61.7"/>
		<rect x="479.2" y="144.5" class="st7" width="13.5" height="63.9"/>
		<rect x="469.3" y="161.7" class="st2" width="9.9" height="46.7"/>
		<rect x="492.7" y="151.7" class="st6" width="18.7" height="56.7"/>
		<rect x="511.4" y="147.6" class="st4" width="14.9" height="60.8"/>
		<rect x="526.3" y="153" class="st2" width="7.5" height="55.4"/>
		<rect x="533.7" y="145.7" class="st8" width="9.5" height="62.6"/>
		<rect x="543.3" y="156.5" class="st2" width="10.9" height="51.9"/>
		<rect x="554.2" y="143.1" class="st6" width="15.7" height="65.2"/>
		<rect x="588.8" y="143.1" class="st5" width="15.7" height="65.2"/>
		<rect x="604.5" y="140.5" class="st2" width="10" height="67.8"/>
		<rect x="614.5" y="148.7" class="st6" width="7.3" height="59.7"/>
		<rect x="621.9" y="140.5" class="st2" width="17.6" height="67.8"/>
		<rect x="569.9" y="146.9" class="st2" width="11.1" height="61.4"/>
		<rect x="581" y="149.4" class="st2" width="7.8" height="59"/>
		<rect x="270.1" y="152.3" class="st2" width="7.4" height="56.1"/>
		<rect x="228.7" y="155.7" class="st4" width="12" height="52.6"/>
		<rect x="145.3" y="146.5" class="st5" width="15.7" height="61.8"/>
		<rect x="161" y="153.5" class="st2" width="13.4" height="54.8"/>
		<rect x="201.4" y="158" class="st2" width="17" height="50.4"/>
		<rect x="174.4" y="147.7" class="st6" width="14.2" height="60.6"/>
		<rect x="174.4" y="158" class="st5" width="14.2" height="9.1"/>
		<rect x="77.5" y="146.5" class="st3" width="7.5" height="61.8"/>
		<rect x="110.9" y="140.8" class="st8" width="14.6" height="67.6"/>
		<rect x="237.1" y="44.3" class="st2" width="7" height="58"/>
		<rect x="244.1" y="32.4" class="st2" width="9.2" height="69.9"/>
		<rect x="270.3" y="32.4" class="st6" width="9.2" height="69.9"/>
		<rect x="253.3" y="36.9" class="st8" width="17" height="65.4"/>
		<rect x="213.6" y="85" class="st2" width="13.6" height="9.1"/>
		<rect x="148.7" y="40" class="st7" width="12.1" height="62.2"/>
		<rect x="148.7" y="40" class="st8" width="12.1" height="8.5"/>
		<line class="st2" x1="244.1" y1="89.5" x2="253.3" y2="89.5"/>
		<line class="st2" x1="244.1" y1="49.7" x2="253.3" y2="49.7"/>
		<line class="st2" x1="571.5" y1="95" x2="581.1" y2="95"/>
		<rect x="109.7" y="262.8" class="st3" width="11.5" height="51.6"/>
		<rect x="130.2" y="248.4" class="st2" width="20.6" height="66"/>
		<rect x="150.7" y="248.4" class="st2" width="8.4" height="66"/>
		<rect x="145.5" y="352.9" class="st2" width="13.7" height="69.1"/>
		<rect x="188" y="352.9" class="st2" width="16.7" height="69.1"/>
		<rect x="223.8" y="352.9" class="st6" width="9" height="69.1"/>
		<rect x="303.3" y="352.9" class="st2" width="11.1" height="69.1"/>
		<rect x="314.4" y="363.9" class="st2" width="11.1" height="58.2"/>
		<rect x="425.6" y="352.9" class="st3" width="15.5" height="69.1"/>
		<rect x="441.1" y="357.2" class="st2" width="12" height="64.8"/>
		<rect x="470" y="353.5" class="st3" width="16.7" height="68.5"/>
		<rect x="486.6" y="358.4" class="st2" width="11.9" height="63.7"/>
		<rect x="512.3" y="358.4" class="st2" width="13.7" height="63.7"/>
		<rect x="526" y="351.1" class="st2" width="18.2" height="71"/>
		<rect x="544.2" y="355.4" class="st6" width="22.8" height="66.7"/>
		<rect x="567" y="352.7" class="st5" width="14.2" height="69.4"/>
		<rect x="498.5" y="365" class="st4" width="13.8" height="57.1"/>
		<rect x="486.6" y="387.8" class="st5" width="11.9" height="16.6"/>
		<rect x="453.1" y="357.2" class="st2" width="10.4" height="64.8"/>
		<rect x="463.4" y="360.2" class="st2" width="6.5" height="61.9"/>
		<rect x="290.7" y="363.9" class="st2" width="12.5" height="58.2"/>
		<rect x="134.2" y="359.7" class="st7" width="11.3" height="62.4"/>
		<rect x="159.1" y="359.7" class="st2" width="6.9" height="62.4"/>
		<rect x="175.1" y="357.1" class="st3" width="13" height="65"/>
		<rect x="204.7" y="357.1" class="st2" width="8.9" height="65"/>
		<rect x="239.7" y="357.1" class="st2" width="15.6" height="65"/>
		<rect x="255.3" y="357.1" class="st2" width="12.4" height="65"/>
		<rect x="213.6" y="357.1" class="st2" width="10.1" height="65"/>
		<rect x="213.6" y="357.1" class="st2" width="10.1" height="9.1"/>
		<rect x="166.1" y="365" class="st5" width="9" height="57.1"/>
		<rect x="169.2" y="248.4" class="st2" width="10.8" height="66"/>
		<rect x="180.1" y="248.4" class="st2" width="8.6" height="66"/>
		<rect x="238" y="248.4" class="st2" width="8.6" height="66"/>
		<rect x="246.6" y="269" class="st2" width="9.6" height="45.4"/>
		<rect x="272.1" y="273.8" class="st2" width="12.8" height="40.6"/>
		<rect x="256.2" y="257.2" class="st5" width="15.9" height="57.2"/>
		<rect x="226.4" y="251" class="st2" width="11.6" height="63.5"/>
		<rect x="188.6" y="260.3" class="st2" width="11.5" height="54.1"/>
		<rect x="213.6" y="260.3" class="st7" width="12.8" height="54.1"/>
		<rect x="200.1" y="251" class="st8" width="13.5" height="63.5"/>
		<rect x="159.1" y="257.2" class="st3" width="10.1" height="57.2"/>
		<rect x="410.9" y="244.8" class="st2" width="12.8" height="69.6"/>
		<rect x="456.4" y="244.8" class="st2" width="9.3" height="69.6"/>
		<rect x="559" y="248.2" class="st2" width="9.3" height="66.2"/>
		<rect x="578" y="248.2" class="st2" width="10.8" height="66.2"/>
		<rect x="588.8" y="248.2" class="st2" width="6.9" height="66.2"/>
		<rect x="551.4" y="264.1" class="st2" width="7.6" height="50.4"/>
		<rect x="423.6" y="250.1" class="st2" width="8.8" height="64.3"/>
		<rect x="432.5" y="250.1" class="st7" width="17.2" height="64.3"/>
		<rect x="465.7" y="251.5" class="st2" width="12.4" height="62.9"/>
		<rect x="518.2" y="251.5" class="st3" width="18" height="62.9"/>
		<rect x="536.2" y="257.2" class="st7" width="15.3" height="57.2"/>
		<rect x="595.7" y="257.2" class="st7" width="12.3" height="57.2"/>
		<rect x="486.2" y="248.2" class="st6" width="17.7" height="66.2"/>
		<rect x="432.5" y="263.7" class="st5" width="17.2" height="8.5"/>
		<rect x="398.6" y="257.2" class="st2" width="12.3" height="57.2"/>
		<rect x="449.7" y="257.2" class="st2" width="6.8" height="57.2"/>
		<rect x="568.3" y="259.7" class="st2" width="9.7" height="54.7"/>
		<rect x="503.9" y="262.3" class="st6" width="14.2" height="52.1"/>
		<rect x="121.2" y="257.2" class="st5" width="9" height="57.2"/>
		<line class="st2" x1="453.1" y1="416" x2="463.4" y2="416"/>
	</g>
</g>
<g>
	<polygon class="st9" points="274,233.7 324.8,213 314,195.7 272.4,195.7 	"/>
	<path class="st10" d="M279.6,211.3c-0.1,12-1.6,25.9-8.2,21.7c-10.7-6.9-8.8-28.4-8.6-29.7c0,0,0-0.1,0-0.1l14.3-6.4l2.1-0.9
		c0,0,0,0.5,0.1,1.4C279.4,199.6,279.7,205.2,279.6,211.3z"/>
	<path class="st9" d="M317.8,124.6c-5.3,1.7-14.7,23.4-18.8,34.1c-4,10.6-10.3,36.9-10.3,36.9l21.9,6.5c0,0,9.7-41.4,6.1-52.5
		C313.1,138.6,323.3,122.8,317.8,124.6z"/>
	<path class="st10" d="M321.4,82.3c3.4,9-7.7,32.4-5.2,34.7c3,2.7,5.1,1.5,5.2,3.2c0.3,4.1-3.4,13.8,0,15.4
		c5.6,2.8,4.8-3.8,10.1-0.4c1.7,1.1,3.5,2.1,5.4,2.7c2.9,1,6,1,9.1,0.8c7.8-0.4,15.4-2.2,22.8-4.4c2.3-0.7,4.6-1.4,6.5-2.9
		c4.2-3.4,4.9-9.5,3.8-14.8c-1.1-5.2-3.5-10.1-4.6-15.3c-0.9-4.3-1-9.2-4.1-12.2c-2.7-2.7-6.9-3.1-10.7-3.3
		c-2.9-0.2-5.9-0.3-8.8,0.1c-2.9,0.4-5.6,1.4-8.4,2c-2.8,0.6-5.9,0.8-8.5-0.4L321.4,82.3z"/>
	<path class="st11" d="M360.1,234c-0.1,0-0.2-0.1-0.2-0.2c0,0-0.3-5-1.3-8.8c0-0.1,0-0.2,0.1-0.2c0.1,0,0.2,0,0.2,0.1
		c0.9,3.8,1.3,8.8,1.3,8.9C360.3,233.9,360.2,234,360.1,234C360.1,234,360.1,234,360.1,234z"/>
	<path class="st9" d="M394.8,157.8l0.1-21l-13.1-11.6c0,0-18.3-4.8-25.6-5.5c-7.3-0.8-17.9,0.2-28.3,2.1c-3.3,0.6-3.9,0.3-6.4,1.1
		c-5.8,1.8-9.2,5.8-10.6,10.2c-1.1,3.2-0.2,7.4-0.6,11.4c-1.2,10.2-7.4,78.7-9.8,121.8c-4.5,80.8-10.4,215.4-10.4,215.4
		s7.6,5.2,27.6,6.7c6.3,0.5,39.6-1.4,46.1-1.4c8.4,0.1,16.7,1.4,22.9,1.4c8.2,0,15.9-2.3,15.8-6.8c-3.6-239.1-19.7-282-15.2-302.7
		C388.1,174.3,394.8,157.8,394.8,157.8z"/>
	<path class="st12" d="M365.5,121.4c0,0.7-6.2,4.9-17.9,4.9c-12.2,0-16.7-4.9-16.7-4.9l1.6-1.6c1.3-1.3,2.4-2.8,3.2-4.4
		c1.2-2.4,1.9-5,1.9-7.7h21.3c0,2.2,0.5,4.4,1.3,6.5c0.2,0.6,0.5,1.1,0.8,1.6c0.8,1.4,1.8,2.8,3,4L365.5,121.4z"/>
	<path class="st10" d="M367.7,90.7l-40.8,0.8c0,0-5.5-7.8-7.1-10.9c-0.2-0.3-0.2-0.8-0.2-1.3c0.3-4.3,4.9-13.9,4.9-13.9l44.4-1.1
		c0,0,1.1,8.8,3.1,13.9c0.2,0.6,2,3.7,2.1,4.1c0.1,0.3,0,3.8,0,4.1C374.6,91.4,367.7,90.7,367.7,90.7z"/>
	<path class="st12" d="M368.5,77.7c0,1.7-0.1,3.3-0.2,5c-0.1,0.8-0.2,1.6-0.3,2.3c-2.2,15.6-10.5,28.6-21.5,28.4
		c-16.7-0.3-19.1-10-20-25.8c-0.1-1.1,0.2-2.6,0.2-4.4c0,0-1.8-5-1.8-5.6c0-3,0.3-5.9,0.7-8.5c2.4-13.3,10.5-21.4,21.1-21.4
		c10.5,0,18.7,8.1,21.1,21.4C368.2,71.8,368.5,74.7,368.5,77.7z"/>
	<path class="st9" d="M330.6,69c2.4-0.2,4.7-0.2,7.1-0.6c2.3-0.3,4.5-0.5,6.8-0.8c2.1-0.3,4.2-0.7,6.4-1.1c2-0.4,4.1-0.7,6.2-0.1
		c1,0.3,1.9,0.7,2.8,1.1c0.9,0.4,1.8,0.7,2.6,1.1c1.8,0.7,3.5,1.5,5.2,2.3c0.9,0.4,1.7,0.8,2.6,1.3c0.1-14.8-4.7-25.7-23.4-25.7
		c-15.9,0-23,9.8-23,23.8C326,69.6,328.3,69.1,330.6,69z"/>
	<path class="st13" d="M367,80.5c-0.1,3,1.3,1.8,1,4.5c-2.4,18.3-8.5,28.7-25,28c-15.8-0.7-17.4-18.6-16.3-29.7
		c0,0.1-0.2,15,4.4,15.2c1.3,0.1,1.9-2.7,4.3-3.4c1.1-0.3,2.2-0.1,3.2,0.4c2,0.9,4.4,1.1,6.4,0.1c1-0.4,2-0.6,3.1-0.5
		c5.1,0.7,3.6,3.9,8.2,4.5C363.6,100.5,364.3,76.1,367,80.5z"/>
	<path class="st13" d="M368.5,77.7c0,1.7-0.1,3.3-0.2,5c-0.1,0.8-0.2,1.6-0.3,2.3c-0.3,0.1-3.7,3.1-3.6,2.6
		c0.9-7.9-2.4-15.4-4.7-17.3c-2.3-1.9-5.7-0.4-15.7-0.4c-10,0-12.3,1-14.9,4.3c-2.6,3.3-2.4,9.1-2.4,9.1s-5.2-3.9-1.1-14.1h42.2
		C368.2,71.8,368.5,74.7,368.5,77.7z"/>
	<path class="st14" d="M346.5,97.2c-0.7,0-1.4,0.2-2,0.6c-1.3,0.8-2.9,0.8-4.2,0c-0.6-0.4-1.3-0.6-2-0.6c-2.4,0-3.8,2.3-3.8,5.1
		s1.4,3.5,3.8,3.5c1.3,0,2.4-0.3,3.2-2.2c0.3-0.7,1.3-0.7,1.6,0c0.8,1.9,2,2.9,3.2,3.2c3.1,0.8,4.8-1.8,4.8-4.6
		S348.9,97.2,346.5,97.2z"/>
	<path class="st15" d="M343.5,102.1c-0.1,0-0.2,0-0.3,0c-3.1-0.1-5.5-1.8-5.6-1.8c-0.4-0.2-0.5-0.7-0.2-1.1c0.2-0.4,0.7-0.5,1.1-0.2
		c0,0,2.2,1.5,4.8,1.6c2.6,0.1,4.6-1.2,4.6-1.2c0.4-0.2,0.9-0.1,1.1,0.2c0.2,0.4,0.1,0.9-0.2,1.1
		C348.6,100.8,346.4,102.1,343.5,102.1z"/>
	<path class="st16" d="M335.7,83.7c0,1.3-0.8,2.3-1.7,2.3s-1.7-1-1.7-2.3c0-1.3,0.8-2.3,1.7-2.3S335.7,82.4,335.7,83.7z"/>
	<path class="st16" d="M353,83.7c0,1.3-0.8,2.3-1.7,2.3s-1.7-1-1.7-2.3c0-1.3,0.8-2.3,1.7-2.3S353,82.4,353,83.7z"/>
	<path d="M354.4,78.9c-0.1,0-0.3,0-0.4-0.1c0,0-2.4-1.1-4.3,0c-0.5,0.3-1.1,0.1-1.4-0.4c-0.3-0.5-0.1-1.1,0.4-1.4
		c2.8-1.5,6.1-0.1,6.2,0c0.5,0.2,0.8,0.9,0.5,1.4C355.2,78.6,354.8,78.9,354.4,78.9z"/>
	<path d="M336.1,78.9c-0.2,0-0.3,0-0.5-0.1c-1.9-1-4.3,0-4.3,0c-0.5,0.2-1.1,0-1.4-0.5c-0.2-0.5,0-1.1,0.5-1.4
		c0.1-0.1,3.4-1.5,6.2,0c0.5,0.3,0.7,0.9,0.4,1.4C336.9,78.7,336.5,78.9,336.1,78.9z"/>
	<path class="st9" d="M390,126.4c0,0,8.9,11.1,11.6,33.2c2.6,22,11.6,52,2.1,56.7c-9.5,4.7-24.7-22.6-24.7-22.6l-0.6-2.9l-7.2-36.3
		l-0.7-3.4l8.4-24.7H390z"/>
	<path class="st9" d="M391.4,122.5c-7.3-11.8-13.3-32.5-13.3-32.5l-7.6-25.7l-46,1.1c0,0-4.6,9.5-4.9,13.9c1.3-3.4,6.5-6.3,10.6-7.5
		c4.6-1.3,6.8,3.3,10.7,3.6c4,0.3,5.9-3.4,9.8-4.2c4.4-0.8,9.4,10,12.5,8.7c0.9-0.4-0.5,4.8-0.3,12.5c0.1,3.2,0.6,4.6,1.5,5.9
		c0.6,11.5,1.6,24.6,2.3,28c1.3,6.5,1.7,10.9,4,16.9c0.6,1.6,7.7,6.6,7.2,7.5c-0.5,0.8,0.1,2,5.6,5.1c3.2,1.8,8.5,4.1,11.5,4.9
		c8.7,2.1,10.8,1,10.8-0.2C406.2,158.1,398.7,134.2,391.4,122.5z"/>
	<path class="st9" d="M365.5,121.4c0,0.7-6.2,4.9-17.9,4.9c-12.2,0-16.7-4.9-16.7-4.9l1.6-1.6c1.3-1.3,2.4-2.8,3.2-4.4
		c0,0,4.5,3.1,12.5,3c0.4,0,0.9,0,1.3,0c1.7-0.1,3.3-0.3,4.7-0.5c4.3-0.8,6.8-2,6.8-2c0.8,1.4,1.8,2.8,3,4L365.5,121.4z"/>
	<path class="st11" d="M346.8,126.5c-0.1,0-0.2,0-0.2-0.1c0-0.1,0-0.2,0.1-0.3c2.3-0.8,2.6-3,2.2-4.7c-0.4-1.5-1.3-2.7-2.1-2.6
		c-0.1,0-0.2-0.1-0.2-0.2c0-0.1,0.1-0.2,0.2-0.2c1-0.1,2.1,1.1,2.6,2.9C349.8,123.2,349.4,125.6,346.8,126.5
		C346.8,126.5,346.8,126.5,346.8,126.5z"/>
	<path class="st15" d="M341.8,95c-0.9,0-2.3-0.2-2.9-1.5c-0.8-1.6-0.4-4.6-0.1-6.9l0-0.4c0.3-2.1,0-5.5,0-5.5c0-0.3,0.2-0.5,0.5-0.6
		c0.3,0,0.5,0.2,0.6,0.5c0,0.1,0.3,3.6,0,5.8l0,0.4c-0.3,2.1-0.7,4.9,0,6.3c0.6,1.2,2.7,0.8,2.7,0.8c0.3-0.1,0.6,0.1,0.6,0.4
		c0.1,0.3-0.1,0.6-0.4,0.6C342.7,94.9,342.4,95,341.8,95z"/>
	<path class="st10" d="M344.6,180l-2.6-0.1c0-0.3,0.8-33.1,3.5-53.8l2.6,0.3C345.4,147,344.6,179.7,344.6,180z"/>
	<path class="st11" d="M340.5,70.5C340.5,70.5,340.5,70.5,340.5,70.5c-0.1,0-0.2-0.1-0.2-0.2l0.3-1.9c0-0.1,0.1-0.2,0.2-0.2
		c0.1,0,0.2,0.1,0.2,0.2l-0.3,1.9C340.7,70.5,340.6,70.5,340.5,70.5z"/>
	<path class="st11" d="M356.3,70.4c-0.1,0-0.2-0.1-0.2-0.2l-0.1-2.1c0-0.1,0.1-0.2,0.2-0.2c0.1,0,0.2,0.1,0.2,0.2l0.1,2.1
		C356.5,70.3,356.4,70.4,356.3,70.4C356.3,70.4,356.3,70.4,356.3,70.4z"/>
	<path class="st11" d="M325.5,72.3C325.5,72.3,325.5,72.3,325.5,72.3c-0.2,0-0.2-0.2-0.2-0.3l1.6-4.5c0-0.1,0.2-0.2,0.3-0.1
		c0.1,0,0.2,0.2,0.1,0.3l-1.6,4.5C325.7,72.3,325.6,72.3,325.5,72.3z"/>
	<path class="st11" d="M368.8,72c-0.1,0-0.1,0-0.2-0.1c-0.9-1.4-1.6-2.9-2.2-4.5c0-0.1,0-0.2,0.1-0.3c0.1,0,0.2,0,0.3,0.1
		c0.6,1.5,1.3,3,2.2,4.4c0.1,0.1,0,0.2-0.1,0.3C368.9,72,368.8,72,368.8,72z"/>
	<path class="st11" d="M370.5,118.4c-0.1,0-0.1,0-0.2-0.1c-2-4-4.8-26.5-5-27.5c0-0.1,0.1-0.2,0.2-0.2c0.1,0,0.2,0.1,0.2,0.2
		c0,0.2,3,23.5,4.9,27.4C370.7,118.2,370.6,118.3,370.5,118.4C370.5,118.4,370.5,118.4,370.5,118.4z"/>
	<path class="st17" d="M354.1,89.5c0,1-1.3,1.8-3,1.8c-1.6,0-3-0.8-3-1.8c0-1,1.3-1.8,3-1.8C352.8,87.7,354.1,88.5,354.1,89.5z"/>
	<path class="st17" d="M336.5,89.5c0,1-1.3,1.8-3,1.8s-3-0.8-3-1.8c0-1,1.3-1.8,3-1.8S336.5,88.5,336.5,89.5z"/>
	<path class="st11" d="M378,150.9c-0.1,0-0.2-0.1-0.2-0.1c0-0.1-3.4-11.1-4.2-18.2c0-0.1,0.1-0.2,0.2-0.2c0.1,0,0.2,0.1,0.2,0.2
		c0.9,7.1,4.2,18,4.2,18.1C378.2,150.7,378.2,150.8,378,150.9C378,150.9,378,150.9,378,150.9z"/>
	<path class="st11" d="M321.4,118.4C321.4,118.4,321.4,118.4,321.4,118.4c-0.1,0-0.2-0.1-0.2-0.2c0.5-3,3.4-18.4,3.4-18.6
		c0-0.1,0.1-0.2,0.2-0.2c0.1,0,0.2,0.1,0.2,0.2c0,0.2-2.9,15.5-3.4,18.5C321.6,118.3,321.5,118.4,321.4,118.4z"/>
	<path class="st11" d="M362.3,79c-0.1,0-0.2-0.1-0.2-0.2l-1.8-10.7c0-0.1,0.1-0.2,0.2-0.2c0.1,0,0.2,0.1,0.2,0.2l1.8,10.7
		C362.5,78.9,362.4,79,362.3,79C362.3,79,362.3,79,362.3,79z"/>
	<path class="st11" d="M364.1,83.9c-0.2,0-0.3,0-0.3,0c-0.1,0-0.2-0.1-0.2-0.2c0-0.1,0.1-0.2,0.2-0.2c0,0,2.7,0.1,3.7-1.2
		c0.4-0.6,0.4-0.8,0.4-0.9c-0.2-0.3-1.3-0.4-2.3-0.4c-2.1-0.1-3.4-0.7-3.5-0.8c-0.1-0.1-0.1-0.2-0.1-0.3c0.1-0.1,0.2-0.1,0.3-0.1
		c0,0,1.3,0.6,3.3,0.7c1.5,0,2.4,0.1,2.6,0.6c0.2,0.3,0,0.7-0.4,1.3C366.9,83.7,364.9,83.9,364.1,83.9z"/>
	<path class="st11" d="M368,81.2c-0.1,0-0.2,0-0.2-0.1c0-0.1-2.8-7.3-4-13.4c0-0.1,0-0.2,0.2-0.2c0.1,0,0.2,0,0.2,0.2
		c1.2,6.1,4,13.2,4,13.3C368.2,81,368.2,81.1,368,81.2C368,81.2,368,81.2,368,81.2z"/>
	<path class="st12" d="M279.6,211.3c-1-0.2-1.9-0.4-2.5-0.6c-3-1-9.3-4.5-14.3-7.5c-4-2.4-7.2-4.4-7.2-4.4s-14.9-5-15.6-7
		c-0.7-2.1,12.3,0,12.3,0l24.8,4.9l2.2,0.4C279.4,199.6,279.7,205.2,279.6,211.3z"/>
	<polygon class="st18" points="333.2,198.4 286.3,187.2 234.9,189 278.5,199.4 333.9,198.4 	"/>
	<polygon class="st19" points="302.1,196.8 276.4,189.1 256.3,189.1 275.5,196.2 	"/>
	<path class="st19" d="M271,126l-55-9.2c-1-0.2-2,0.7-1.9,1.7l3.4,63.7c0.1,1.5,1.1,2.9,2.6,3.3l54,16.4c0.7,0.2,1.5-0.3,1.4-1.1
		l-3.1-73.3C272.3,126.8,271.8,126.1,271,126z"/>
	<path class="st19" d="M279.6,202.4h49.6c2.2,0,4-1.8,4-4h-59.1h1.4c0,1.9-2.5,2.3-0.8,2.8C275.1,201.3,274.1,202,279.6,202.4z"/>
	<path class="st11" d="M308,187.6C308,187.6,308,187.6,308,187.6c-0.4-0.1-0.6-0.3-0.5-0.6c0-0.2,3.8-24,7.2-37.7
		c0.1-0.3,0.4-0.5,0.6-0.4c0.3,0.1,0.5,0.4,0.4,0.6c-3.4,13.7-7.2,37.4-7.2,37.6C308.5,187.4,308.3,187.6,308,187.6z"/>
	<g>
		<path class="st12" d="M334.2,186.3c0,0-19.2-5.7-22.2-6.6c-3-0.8-16.2,0-16.2,0s-13.5,2.1-13.3,4.3c0.2,2.2,2.6,2.2,2.6,2.2
			s-0.7,1.4,0.8,1.9c1.5,0.5,6.2-2.1,6.2-2.1l9.1,1.1l-2.7,0.4c-1.1,0.2-1.6,1.6-0.7,2.3c0,0,0,0,0,0c1.4,1.2,8.8,0.6,11.7,1.9
			c2.9,1.3,2.9,1.6,9.7,4.4c6.8,2.8,10.3,2.8,14.1,2.8c3.9,0,7-0.8,7-0.8L334.2,186.3z"/>
		<g>
			<path class="st15" d="M313.2,187.4C313.1,187.4,313.1,187.4,313.2,187.4c-0.1,0-2.5-0.5-5.1-0.2c-2.7,0.3-6.9,0-6.9,0
				c-0.1,0-0.2-0.1-0.2-0.2c0-0.1,0.1-0.2,0.2-0.2c0,0,4.2,0.3,6.8,0c2.7-0.4,5.2,0.2,5.2,0.2c0.1,0,0.2,0.1,0.2,0.2
				C313.3,187.3,313.2,187.4,313.2,187.4z"/>
			<path class="st15" d="M291.8,186.2c-0.9,0-4.7-0.1-5-1.8c-0.4-1.9,1.4-2.6,1.4-2.6c0,0,0,0,0.1,0h15.9l5.9,0.7
				c0.1,0,0.2,0.1,0.2,0.2c0,0.1-0.1,0.2-0.2,0.2l-5.8-0.7l-15.8,0c-0.2,0.1-1.4,0.6-1.1,2.1c0.3,1.3,3.6,1.5,4.8,1.5
				c0.1,0,0.2,0.1,0.2,0.2c0,0.1-0.1,0.2-0.2,0.2C292,186.2,291.9,186.2,291.8,186.2z"/>
			<path class="st15" d="M285.1,186.6c-0.1,0-0.1,0-0.2,0c-0.1,0-0.2-0.1-0.2-0.2c0-0.1,0-0.1,0-0.2c0-0.1,0.1-0.1,0.2-0.1
				c2.1,0.1,3.7,0,5.2-0.4c0.1,0,0.2,0,0.2,0.1c0,0.1,0,0.2-0.1,0.2c-1.4,0.4-3,0.5-4.9,0.4c0,0-0.1,0.1-0.1,0.1
				C285.2,186.6,285.1,186.6,285.1,186.6z"/>
		</g>
	</g>
	<path class="st11" d="M378.1,268.9c-0.1,0-0.2-0.1-0.2-0.2l-3.2-41.3c0-0.1,0.1-0.2,0.2-0.2c0.1,0,0.2,0.1,0.2,0.2l3.2,41.3
		C378.3,268.8,378.2,268.9,378.1,268.9C378.1,268.9,378.1,268.9,378.1,268.9z"/>
	<path class="st13" d="M350,68.3c-21.3,0-27-1.2-27.2-1.2c-1-0.2-1.6-1.2-1.4-2.2c0.2-1,1.2-1.6,2.2-1.4c0.1,0,5.8,1.1,26.5,1.1
		c13.1,0,20-1.1,20.1-1.1c1-0.2,1.9,0.5,2.1,1.5c0.2,1-0.5,1.9-1.5,2.1C370.4,67.1,363.4,68.3,350,68.3z"/>
	<path class="st13" d="M372.3,62.7c0,0.4-0.1,0.8-0.3,1.1c-0.1,0.1-0.1,0.2-0.2,0.3c0,0,0,0-0.1,0.1c-0.3,0.3-0.7,0.5-1.2,0.5
		c-0.8,0-20.3,1-26.4,1c-5.6,0-20.3-0.9-21-1c-0.5,0-1-0.3-1.3-0.7c0,0-0.1-0.1-0.1-0.2c-0.1-0.1-0.1-0.2-0.2-0.3
		c-0.1-0.3-0.2-0.6-0.1-0.9c0.1-1,0.9-1.8,2-1.7c0.2,0,15.2,1,20.7,1c6.1,0,26.1-1,26.3-1C371.4,60.9,372.2,61.7,372.3,62.7z"/>
	<path class="st20" d="M372,63.8c-0.1,0.1-0.1,0.2-0.2,0.3c0,0-0.1,0-0.1,0c-4.3,0.2-13.8,0.7-24.9,1c-1.3,0-2.6,0-3.8,0
		c-9,0-16.8-0.8-21-1.3c-0.1,0-0.2,0-0.2,0c-0.1-0.1-0.1-0.2-0.2-0.3c0.2,0,0.5,0.1,0.8,0.1c4.8,0.6,14.1,1.4,24.5,1.2
		c2.7-0.1,5.3-0.1,7.8-0.2h0c2.2-0.1,4.3-0.2,6.2-0.2h0c4.6-0.2,8.3-0.4,10.6-0.5C371.6,63.8,371.8,63.8,372,63.8z"/>
	<path class="st11" d="M378.3,192.6c-0.2,0-0.5-0.2-0.5-0.4l-6.5-34.7c-0.1-0.3,0.1-0.6,0.4-0.6c0.3-0.1,0.6,0.1,0.6,0.4l6.5,34.7
		C378.9,192.3,378.7,192.5,378.3,192.6C378.4,192.6,378.3,192.6,378.3,192.6z"/>
	<path class="st11" d="M402.9,162c-1.8,0-4.4-0.4-7.7-1.2c-3.1-0.7-8.4-3.1-11.6-4.9c-4.9-2.7-5.7-3.8-5.9-4.5
		c-0.1-0.3,0-0.6,0.1-0.8c0.1-0.4-2-2.2-3.4-3.4c-1.8-1.6-3.5-3.1-3.8-3.9c-2.3-6-3.6-14.5-4.7-21.9c0-0.1,0.1-0.2,0.2-0.2
		c0.1,0,0.2,0.1,0.2,0.2c1,7.5,2.3,15.9,4.6,21.9c0.3,0.7,2.1,2.3,3.7,3.7c2.7,2.4,3.8,3.4,3.5,3.9c-0.1,0.2-0.1,0.3-0.1,0.5
		c0.2,0.9,2,2.2,5.7,4.2c3.2,1.8,8.5,4.1,11.5,4.8c6.9,1.7,9.4,1.3,10.2,0.7c0.2-0.2,0.4-0.4,0.4-0.7c0-0.1,0.1-0.2,0.2-0.2
		c0.1,0,0.2,0.1,0.2,0.2c0,0.4-0.2,0.7-0.6,0.9C405.1,161.8,404.2,162,402.9,162z"/>
	<g>
		<path class="st9" d="M387.5,192.7c0,0-14.7,0.7-23.5,0c-8.8-0.7-30.8-6.7-30.8-6.7l0.1,2.2l2.3,36.7c0,0,0.7,0.1,1.9,0.3
			c6.2,1,25.9,3.9,37.3,2.1c2.4-0.4,4.8-0.8,7.1-1.3c10.8-2.4,20.2-6.4,23.7-11.6C408.4,210.6,387.5,192.7,387.5,192.7z"/>
		<path class="st11" d="M390.4,197c-0.1,0-0.1,0-0.1-0.1c-3.4-3.5-7.5-3.9-11.4-3.8c-0.1,0-12.7-0.1-20-1
			c-7.3-0.9-24.5-5.6-24.7-5.7c-0.1,0-0.2-0.1-0.1-0.2c0-0.1,0.1-0.2,0.2-0.1c0.2,0,17.3,4.8,24.6,5.7c7.3,0.9,19.8,1,20,1
			c4-0.1,8.2,0.4,11.7,4c0.1,0.1,0.1,0.2,0,0.3C390.5,197,390.4,197,390.4,197z"/>
	</g>
	<path class="st11" d="M303.7,222.2C303.7,222.2,303.7,222.2,303.7,222.2c-0.3,0-0.5-0.3-0.5-0.6l1.3-17.6c0-0.3,0.3-0.5,0.6-0.5
		c0.3,0,0.5,0.3,0.5,0.6l-1.3,17.6C304.2,221.9,304,222.2,303.7,222.2z"/>
	<path class="st11" d="M367.1,227.5c-10,0-31.2-2.4-31.5-2.4c-0.1,0-0.2-0.1-0.2-0.2c0-0.1,0.1-0.2,0.2-0.2c0.2,0,25,2.9,33.6,2.4
		c2.6-0.1,11.6-0.8,19.7-2.7c0.1,0,0.2,0,0.2,0.1c0,0.1,0,0.2-0.1,0.2c-8.1,2-17.2,2.6-19.8,2.7C368.7,227.5,368,227.5,367.1,227.5z
		"/>
	<path class="st11" d="M335.7,225.4c-0.3,0-0.5-0.2-0.5-0.5l-2.5-38.9c0-0.3,0.2-0.5,0.5-0.6c0.3,0,0.5,0.2,0.6,0.5l2.5,38.9
		C336.2,225.1,336,225.4,335.7,225.4C335.7,225.4,335.7,225.4,335.7,225.4z"/>
	<path class="st21" d="M274.7,202c-0.4,0-0.8-0.3-0.8-0.8l-2.4-73.6c0-0.4,0.3-0.8,0.8-0.8c0.4,0,0.8,0.3,0.8,0.8l2.4,73.6
		C275.5,201.6,275.2,202,274.7,202C274.7,202,274.7,202,274.7,202z"/>
	<path class="st11" d="M347.6,126.5c-12.1,0-16.7-4.8-16.9-5c-0.1-0.1-0.1-0.2,0-0.3l1.6-1.6c1.3-1.3,2.3-2.8,3.2-4.4
		c0-0.1,0.1-0.1,0.1-0.1c0.1,0,0.1,0,0.2,0c0,0,4.6,3.1,12.4,2.9c0.4,0,0.9,0,1.3,0c1.6-0.1,3.1-0.2,4.7-0.5c4.2-0.7,6.7-2,6.7-2
		c0.1,0,0.2,0,0.3,0.1c0.8,1.4,1.8,2.8,3,4l1.6,1.6c0,0,0.1,0.1,0.1,0.1C365.7,122.3,359.7,126.5,347.6,126.5z M331.2,121.4
		c0.8,0.8,5.7,4.7,16.5,4.7c11.3,0,17.2-3.9,17.7-4.7l-1.5-1.5c-1.2-1.2-2.1-2.5-2.9-3.9c-0.6,0.3-3,1.3-6.7,2
		c-1.5,0.3-3.1,0.4-4.7,0.5c-0.4,0-0.8,0-1.3,0c-7.1,0.1-11.5-2.3-12.5-2.9c-0.8,1.6-1.9,3-3.1,4.3L331.2,121.4z"/>
</g>
<g>
	<g>
		<path class="st22" d="M338.3,280.7c-6.8-2.1-12.6-3.8-16.7-3.1c-4.1,0.6-18.3,8.7-18.3,8.7l41.8,2.5L338.3,280.7z"/>
		<path class="st23" d="M423.2,219.6c-6,7.7-24.6,46.7-27.8,49.7c-3.2,3.1-57,11.3-57,11.3l6,19.9c0,0,55.4-5.1,61.1-7.9
			c5.7-2.8,24.3-31.5,24.3-31.5S428.7,212.5,423.2,219.6z"/>
		<g>
			<g>
				
					<rect x="443.8" y="407.5" transform="matrix(0.5496 -0.8354 0.8354 0.5496 -119.0513 596.4037)" class="st24" width="99.7" height="2.2"/>
			</g>
			<g>
				
					<rect x="503.6" y="361.2" transform="matrix(0.5636 -0.8261 0.8261 0.5636 -112.7135 592.8375)" class="st24" width="2.2" height="83.8"/>
			</g>
			<g>
				<polygon class="st24" points="477.3,409.4 414.8,369.6 416,367.7 478.5,407.5 				"/>
			</g>
			<g>
				<polygon class="st24" points="402.6,430.3 401.1,428.7 470,361.2 471.5,362.8 				"/>
			</g>
			<g>
				<polygon class="st24" points="517.9,352.8 513.5,352 522.5,308 492.7,305.6 485.8,347.2 481.5,346.5 489,300.8 527.8,303.9 				
					"/>
			</g>
			<g>
				<polygon class="st24" points="547.7,466.7 515.2,351.4 519.5,350.2 552,466.7 				"/>
			</g>
			<g>
				<polygon class="st24" points="393.4,471.2 389.1,471.2 417.3,353.5 421.6,354.6 				"/>
			</g>
			<g>
				<polygon class="st24" points="465.1,481.5 460.7,481.5 469,362 473.4,362.3 				"/>
			</g>
			<g>
				<polygon class="st24" points="483.1,462.4 467.1,347.2 471.4,346.6 487.5,462.4 				"/>
			</g>
			<path class="st25" d="M464.3,342.5c-8.3,0.8-54.8,7.7-58.1,12.7c-3.3,5,64.5,19,71.2,18.4c8.4-0.7,48.2-13.6,52.7-21.7
				C532.9,346.9,476.4,341.3,464.3,342.5z"/>
			<path class="st25" d="M475.9,328.1c4.6,2.3,54.2,5,58.1,2.8c3.9-2.2,19.9-75.2,14.9-78.5c-5-3.3-58.1-5-63.1-2.2
				C480.9,252.9,471.5,325.9,475.9,328.1z"/>
		</g>
		<g>
			<path class="st26" d="M449,454c-0.1,4.2,4.3,16,4.3,16s-0.9,1.3-2.9,0.9l-7-13.1L449,454z"/>
			<path class="st26" d="M424.2,474.3c-1.2,3.4-4.4,9.2-3.9,12.3c0.5,3,17.2-5.8,19-8.8c1.8-3,3.1-15.4,5.7-18
				c4.1-4.2,7.5-9.2-1.8-14.6C433.9,439.7,424.2,474.3,424.2,474.3z"/>
			<path class="st22" d="M444.4,335.4c-80.3,4.9-61.3,33.4-54.3,45.7c16.9,29.9,34.2,61.7,36,66.5c1.8,4.8-1.9,26.7-1.9,26.7
				s4.9-0.1,9.4-2.7c4.4-2.6,5.1-21.6,9.7-26.5c0,0-4.3-3.9-6.9-10.8c-2.6-6.9-6.3-28.4-15-59.8c35.5,4.9,48.1-7.6,48.1-7.6
				S508.9,331.4,444.4,335.4z"/>
		</g>
		<g>
			<path class="st26" d="M376.5,449.5c1.2,4.9,3.1,8.8,1.9,11.8c-1.2,3.1-2.8,16.5-2.8,16.5s-2.1,1.3-3.1,0.2l0.4-8.6
				c0,0-2.7,6.8-4.5,9.1c-1.8,2.3-12.3,5.7-18.5,4.8c-6.2-0.9-1.4-7,5.8-15S376.5,449.5,376.5,449.5z"/>
			<path class="st22" d="M404.2,331.7c0,0-34,10.6-35.7,24c-2.3,17.1-1.3,29.5-1.5,42.7c-0.3,15.9-1.8,40.5-2.8,48
				c-1,7.6-3.1,12.5-5.7,17.2c-2.6,4.7-5.8,7.4-4.2,9.5c1.6,2.1,11,0.8,13.9-1.5c2.9-2.3,7.6-16.6,8.5-22.1
				c0.9-5.5,15.5-41.8,16.8-72.7c0.2-5.4,39.5-17.1,36.6-24.4C423.2,335.4,411.6,335.7,404.2,331.7z"/>
		</g>
		<path class="st23" d="M437.7,309l57.6,2.9c0,0,17.5,33.1,0.7,46.2c-12.8,10-44.2,22.5-66.4,21.3l17,65.1c0,0-16.8,16.2-28,18
			c-11.2,1.7-21.1-5.3-31.6-2.9c-10.5,2.3-28.7,6.2-36.5-3.1c0,0,7.2-92.5,16.4-109C377.8,327.8,437.7,309,437.7,309z"/>
		<g>
			<path class="st23" d="M499.8,212.6c-7.8-3.7-27.3-6.5-27.3-6.5s-11.8,8.7-23.1,19.6c0,0-5.1-4.3-7.9-14.9c0,0-15,4.9-18.3,8.9
				c-3.4,3.9-1.4,22.1-1.6,28c-0.1,5.9-3.2,14.5,6.7,36.5c2.4,5.3,5.2,19.6,10.5,22c20.1,9.2,54.9-7.3,54.9-10.7
				c0-18.1,4.9-38.5,8-50.9C505.3,229.4,509.3,217.2,499.8,212.6z"/>
			<g>
				<path class="st27" d="M456.1,317.3c-0.3,0-0.5-0.2-0.6-0.4c-0.1-0.4-3.2-10.6-5.3-40.2c0-0.3,0.2-0.6,0.6-0.7
					c0.3-0.1,0.6,0.2,0.7,0.6c2,29.4,5.2,39.9,5.2,40c0.1,0.3-0.1,0.7-0.4,0.8C456.3,317.3,456.2,317.3,456.1,317.3z"/>
			</g>
			<g>
				<path class="st28" d="M432.3,297.8c-0.3,0-0.5-0.2-0.6-0.5c-1.8-7.1-4-13-5.9-18.3c-2.8-7.6-5.2-14.1-5.1-20.6
					c0.1-5.7,1.8-13,1.9-13.3c0.1-0.3,0.4-0.5,0.7-0.5c0.3,0.1,0.5,0.4,0.5,0.7c0,0.1-1.7,7.4-1.8,13c-0.1,6.3,2.1,12.4,5,20.1
					c2,5.3,4.2,11.3,6,18.4c0.1,0.3-0.1,0.7-0.4,0.8C432.4,297.8,432.3,297.8,432.3,297.8z"/>
			</g>
		</g>
		<g>
			<path class="st23" d="M502.3,214.3c12.9,9.3-12.2,60.8-16.5,69.4c-5.2,10.3-8.8,6.5-28.8,6.5c-16.1,0-42.9,0-42.9,0
				s-10.4-17.8,4.8-19c17-1.3,48.4-2.1,48.4-2.1S483.4,200.6,502.3,214.3z"/>
			<path class="st22" d="M420.7,283.5c-4.5,1-4.3,3.3-7.5,3.8c-3.2,0.5-10.4,1.3-12.3,0.2c-1.9-1.1,1.4-10.4,0.3-11.2
				c-1.1-0.8-3,8.3-4.8,8.4c-1.9,0.1-0.8-8.5-0.1-10.2c0.7-1.8,4.8-5.5,6.9-5.4c2.1,0.1,12.1,1.5,16.8,3.2
				C424.7,274.1,423.6,282.9,420.7,283.5z"/>
			<g>
				<path class="st28" d="M478.2,272.6c-0.1,0-0.2,0-0.3-0.1c-5.4-3.2-13.7-2.7-21.1-2.2l-0.6,0c-4.1,0.3-13.5,0.6-21.8,0.9
					c-6.7,0.2-13,0.4-13.6,0.5c-0.4,0.1-0.7-0.2-0.7-0.5c-0.1-0.3,0.2-0.7,0.5-0.7c0.6-0.1,5.4-0.3,13.8-0.6
					c8.3-0.3,17.7-0.6,21.8-0.9l0.6,0c7.5-0.5,16-1,21.8,2.3c0.3,0.2,0.4,0.6,0.2,0.8C478.6,272.5,478.4,272.6,478.2,272.6z"/>
			</g>
			<g>
				<path class="st28" d="M468.1,269.7c-0.2,0-0.4-0.1-0.5-0.3c-0.2-0.3-0.1-0.7,0.2-0.9c0.3-0.2,6.6-4.3,13-1.8
					c0.3,0.1,0.5,0.5,0.4,0.8c-0.1,0.3-0.5,0.5-0.8,0.3c-5.8-2.3-11.8,1.6-11.9,1.7C468.4,269.7,468.3,269.7,468.1,269.7z"/>
			</g>
			<g>
				<path class="st28" d="M467.2,269.7c0,0-0.1,0-0.1,0c-0.3-0.1-0.6-0.4-0.5-0.7c0-0.1,2.6-12.7,11-33.8c0.1-0.3,0.5-0.5,0.8-0.3
					c0.3,0.1,0.5,0.5,0.3,0.8c-8.3,21-10.9,33.5-10.9,33.6C467.8,269.5,467.5,269.7,467.2,269.7z"/>
			</g>
			<g>
				<path class="st28" d="M414.4,289.4c-0.1,0-0.3,0-0.4,0c-0.3,0-0.6-0.3-0.6-0.7c0-0.3,0.3-0.6,0.7-0.6c2.6,0.2,7.1-2.6,8.3-8.3
					c1.3-5.9-1.9-8-2.1-8.1c-0.3-0.2-0.4-0.6-0.2-0.9c0.2-0.3,0.6-0.4,0.8-0.2c0.2,0.1,4.1,2.6,2.6,9.4
					C422.3,286.3,417.6,289.4,414.4,289.4z"/>
			</g>
			<g>
				<path class="st28" d="M482.2,289.4c-0.1,0-0.3,0-0.4-0.1c-0.3-0.2-0.3-0.6-0.1-0.9c0.1-0.2,12.6-17,17.6-36.3
					c0.1-0.3,0.4-0.5,0.8-0.4c0.3,0.1,0.5,0.4,0.4,0.8c-5.1,19.5-17.7,36.5-17.8,36.7C482.6,289.3,482.4,289.4,482.2,289.4z"/>
			</g>
			<g>
				<path class="st29" d="M405.6,286C405.6,286,405.5,286,405.6,286c-0.4,0-0.7-0.3-0.6-0.7c0.1-1,1.2-9.6,4.2-11.2
					c0.3-0.2,0.7,0,0.8,0.3c0.2,0.3,0,0.7-0.3,0.8c-2.1,1.1-3.3,7.8-3.6,10.3C406.2,285.8,405.9,286,405.6,286z"/>
			</g>
			<g>
				<path class="st29" d="M401.2,277c-0.1,0-0.3,0-0.4-0.1c-0.3-0.2-0.3-0.6-0.1-0.9l2.4-3.3c0.2-0.3,0.6-0.3,0.9-0.1
					c0.3,0.2,0.3,0.6,0.1,0.9l-2.4,3.3C401.6,276.9,401.4,277,401.2,277z"/>
			</g>
			<g>
				<path class="st29" d="M410.6,286.1c0,0-0.1,0-0.1,0c-0.3-0.1-0.6-0.4-0.5-0.7c0-0.2,1-6.2,3.7-8.3c0.3-0.2,0.7-0.2,0.9,0.1
					c0.2,0.3,0.2,0.7-0.1,0.9c-2.3,1.9-3.3,7.5-3.3,7.6C411.2,285.9,410.9,286.1,410.6,286.1z"/>
			</g>
			<g>
				<path class="st29" d="M415.8,286.8c-0.1,0-0.1,0-0.2,0c-0.3-0.1-0.5-0.5-0.4-0.8c0.1-0.2,1.4-4.3,3-6.4c0.2-0.3,0.6-0.3,0.9-0.1
					c0.3,0.2,0.3,0.6,0.1,0.9c-1.5,1.9-2.8,6-2.8,6C416.3,286.7,416,286.8,415.8,286.8z"/>
			</g>
		</g>
		<g>
			<polygon class="st30" points="438.9,289.8 350.6,289.8 350.6,281.2 401.8,281.2 			"/>
			<rect x="350.6" y="281.2" class="st25" width="51.2" height="8.7"/>
		</g>
		<g>
			<path class="st30" d="M357,272.2H249.7c-3.6,0-6.5-2.9-6.5-6.5v-67.5c0-3.6,2.9-6.5,6.5-6.5H357c3.6,0,6.5,2.9,6.5,6.5v67.5
				C363.5,269.3,360.6,272.2,357,272.2z"/>
			<path class="st25" d="M354.7,272.2H247.5c-3.6,0-6.5-2.9-6.5-6.5v-67.5c0-3.6,2.9-6.5,6.5-6.5h107.3c3.6,0,6.5,2.9,6.5,6.5v67.5
				C361.2,269.3,358.3,272.2,354.7,272.2z"/>
			<path class="st31" d="M312.7,289.8H286v-54.3c0-1.7,1.4-3.1,3.1-3.1h20.6c1.7,0,3.1,1.4,3.1,3.1V289.8z"/>
			<path class="st32" d="M314.4,289.8h-26.7v-54.3c0-1.7,1.4-3.1,3.1-3.1h20.6c1.7,0,3.1,1.4,3.1,3.1V289.8z"/>
			<path class="st32" d="M339.7,289.8H291v-4.4h48.7c1.2,0,2.2,1,2.2,2.2l0,0C341.9,288.8,341,289.8,339.7,289.8z"/>
		</g>
		<g>
			<rect x="219.2" y="289.8" class="st33" width="352.6" height="29.5"/>
			<rect x="204.3" y="289.8" class="st34" width="382.5" height="5.7"/>
			<polygon class="st34" points="219.2,488.2 212.4,488.2 219.2,300.6 226,300.6 			"/>
			<polygon class="st34" points="578.6,488.2 571.8,488.2 565,300.6 571.8,300.6 			"/>
		</g>
	</g>
	<path class="st35" d="M424.9,218.9c5.3,20.1,19.8,26.9,33.9,22.2c14-4.7,32.6-24.2,35.8-29c4.2-6.1-4.2-0.8-7.4-5.6
		c-2.5-3.7-2.1-4.3-7.1-3.9c-6.7,0.5,2-26.3-3.4-47.9c-2.8-11.3-13.8-21.5-34.2-18.1c-15.6,2.6-20.4,19.4-18.9,34
		c1.5,14.6,12.1,33,10.7,38C432.8,213.7,423.7,214.4,424.9,218.9z"/>
	<g>
		<g>
			<path class="st22" d="M464.4,187.7c-2.1,4.2-10.6,13.3-20,14c-5.5,0.4-12.6-9.6-13.7-14.3c-0.9-3.5-3.9-16.9-4.3-22.5
				c-0.3-3.9,0.3-13.9,12.7-15.5c17.8-2.4,24.1,7.1,25.1,10.7C465.1,163.7,467.7,180.9,464.4,187.7z"/>
			<g>
				<path class="st29" d="M439.1,183.4c-0.1,0-0.2,0-0.3-0.1c-0.1-0.1-2.1-1.4-1.3-5c0.1-0.3,0.4-0.5,0.7-0.5
					c0.3,0.1,0.5,0.4,0.5,0.7c-0.6,2.6,0.7,3.6,0.7,3.6c0.3,0.2,0.3,0.6,0.2,0.9C439.5,183.3,439.3,183.4,439.1,183.4z"/>
			</g>
			<g>
				<path class="st29" d="M440.3,189.1c-1.2,0-2.5-0.2-3.5-0.6c-0.3-0.1-0.5-0.5-0.3-0.8c0.1-0.3,0.5-0.5,0.8-0.3
					c3.5,1.5,9.9-0.8,9.9-0.8c0.3-0.1,0.7,0.1,0.8,0.4c0.1,0.3-0.1,0.7-0.4,0.8C447.4,187.8,443.7,189.1,440.3,189.1z"/>
			</g>
			<path class="st36" d="M449.4,171.8c0.1,1.6,0.8,2.8,1.6,2.8c0.8,0,1.3-1.4,1.2-3c-0.1-1.6-0.8-2.8-1.6-2.8
				C449.8,168.8,449.3,170.2,449.4,171.8z"/>
			<path class="st36" d="M430.2,173c0.1,1.6,0.8,2.8,1.6,2.8c0.8,0,1.3-1.4,1.2-3c-0.1-1.6-0.8-2.8-1.6-2.8
				C430.6,170.1,430.1,171.4,430.2,173z"/>
		</g>
		<g>
			<path class="st37" d="M427.8,166.1c-0.2,0-0.3-0.1-0.5-0.2c-0.2-0.3-0.2-0.6,0-0.9c3.7-3.4,8.1-0.9,8.2-0.8
				c0.3,0.2,0.4,0.6,0.2,0.8c-0.2,0.3-0.5,0.4-0.8,0.2c-0.1-0.1-3.7-2.1-6.7,0.7C428.1,166,428,166.1,427.8,166.1z"/>
		</g>
		<g>
			<path class="st37" d="M444.6,164.8c-0.2,0-0.4-0.1-0.5-0.2c-0.2-0.3-0.2-0.7,0.1-0.9c0.2-0.2,5.4-4,12.5-0.8
				c0.3,0.1,0.4,0.5,0.3,0.8c-0.1,0.3-0.5,0.5-0.8,0.3c-6.5-2.9-11.2,0.6-11.2,0.6C444.8,164.8,444.7,164.8,444.6,164.8z"/>
		</g>
	</g>
	<g>
		<path class="st38" d="M426.1,161.1c-0.3,0-0.6-0.3-0.6-0.6c0-0.4-0.1-10.7,7.7-18.8c0.2-0.2,0.6-0.3,0.9,0c0.2,0.2,0.3,0.6,0,0.9
			c-7.4,7.7-7.3,17.8-7.3,17.9C426.7,160.8,426.4,161.1,426.1,161.1C426.1,161.1,426.1,161.1,426.1,161.1z"/>
	</g>
	<g>
		<path class="st38" d="M464.8,158.2c-0.3,0-0.6-0.2-0.6-0.5c0-0.2-2.3-15.8-9.7-17.5c-0.3-0.1-0.5-0.4-0.5-0.7
			c0.1-0.3,0.4-0.5,0.7-0.5c8.2,2,10.5,17.9,10.6,18.5C465.4,157.8,465.2,158.1,464.8,158.2C464.8,158.2,464.8,158.2,464.8,158.2z"
			/>
	</g>
	<g>
		<path class="st38" d="M451.5,212.4L451.5,212.4c-13.3-0.1-18-14.8-18.1-14.9c-0.1-0.3,0.1-0.7,0.4-0.8c0.3-0.1,0.7,0.1,0.8,0.4
			c0,0.1,4.5,14,16.9,14c0.3,0,0.6,0.3,0.6,0.6C452.1,212.1,451.8,212.4,451.5,212.4z"/>
	</g>
	<g>
		<path class="st38" d="M450.7,215.9c-10.4,0-16.5-4-16.6-4.1c-0.3-0.2-0.4-0.6-0.2-0.9c0.2-0.3,0.6-0.4,0.9-0.2
			c0.2,0.1,17.5,11.4,44-5.2c0.3-0.2,0.7-0.1,0.9,0.2c0.2,0.3,0.1,0.7-0.2,0.9C468,213.8,458.2,215.9,450.7,215.9z"/>
	</g>
	<g>
		<path class="st38" d="M452.3,203.9c-0.2,0-0.4-0.1-0.6-0.3c-0.2-0.3,0-0.7,0.3-0.8c0.1-0.1,9.8-5.1,12.7-13.6
			c0.1-0.3,0.5-0.5,0.8-0.4c0.3,0.1,0.5,0.5,0.4,0.8c-3.1,9-12.9,14.1-13.3,14.3C452.5,203.9,452.4,203.9,452.3,203.9z"/>
	</g>
	<g>
		<path class="st38" d="M450,236.5c-0.1,0-0.2,0-0.2,0c-14.2-5.8-20-18.6-20.1-18.8c-0.1-0.3,0-0.7,0.3-0.8c0.3-0.1,0.7,0,0.8,0.3
			c0.1,0.1,5.7,12.5,19.4,18.1c0.3,0.1,0.5,0.5,0.3,0.8C450.4,236.4,450.2,236.5,450,236.5z"/>
	</g>
	<g>
		<path class="st38" d="M458.7,230.3c-2.6,0-4.2-0.4-4.3-0.4c-0.3-0.1-0.5-0.4-0.5-0.7c0.1-0.3,0.4-0.5,0.7-0.5
			c0.2,0,19.6,4.3,32.3-18.4c0.2-0.3,0.5-0.4,0.8-0.2c0.3,0.2,0.4,0.5,0.2,0.8C478.5,227.9,465.4,230.3,458.7,230.3z"/>
	</g>
	<g>
		<path class="st38" d="M470.3,223.1c-0.2,0-0.4-0.1-0.5-0.3c-0.2-0.3,0-0.7,0.3-0.8c11.4-6.1,15.5-14.8,15.6-14.9
			c0.1-0.3,0.5-0.4,0.8-0.3c0.3,0.1,0.4,0.5,0.3,0.8c-0.2,0.4-4.3,9.1-16.1,15.4C470.5,223.1,470.4,223.1,470.3,223.1z"/>
	</g>
	<g>
		<path class="st28" d="M429.7,380.1c-0.3,0-0.6-0.2-0.6-0.6c0-0.1-0.6-8.1-6.1-10.3c-0.3-0.1-0.5-0.5-0.3-0.8
			c0.1-0.3,0.5-0.5,0.8-0.3c6.1,2.5,6.8,11,6.8,11.4C430.3,379.8,430,380.1,429.7,380.1C429.7,380.1,429.7,380.1,429.7,380.1z"/>
	</g>
	<g>
		<path class="st28" d="M427,380.1c-0.2,0-0.4-0.1-0.5-0.3c-4.7-8-15.9-12.2-16-12.2c-0.3-0.1-0.5-0.5-0.4-0.8
			c0.1-0.3,0.5-0.5,0.8-0.4c0.5,0.2,11.8,4.4,16.7,12.8c0.2,0.3,0.1,0.7-0.2,0.8C427.2,380.1,427.1,380.1,427,380.1z"/>
	</g>
	<g>
		<path class="st28" d="M377.8,456.8C377.8,456.8,377.8,456.8,377.8,456.8c-0.4,0-0.6-0.3-0.6-0.7l2.8-51.7c0-0.3,0.3-0.6,0.7-0.6
			c0.3,0,0.6,0.3,0.6,0.7l-2.8,51.7C378.4,456.6,378.1,456.8,377.8,456.8z"/>
	</g>
	<g>
		<path class="st28" d="M409.3,454.7c-0.3,0-0.6-0.2-0.6-0.5l-5.6-29.4c-0.1-0.3,0.2-0.7,0.5-0.7c0.3-0.1,0.7,0.2,0.7,0.5l5.6,29.4
			c0.1,0.3-0.2,0.7-0.5,0.7C409.3,454.7,409.3,454.7,409.3,454.7z"/>
	</g>
	<g>
		<path class="st28" d="M398.2,440c-0.3,0-0.6-0.2-0.6-0.5c-3.6-26.6-10.5-77.2-10.8-78.5c-0.1-0.3,0.1-0.7,0.4-0.7
			c0.3-0.1,0.6,0.1,0.8,0.4c0.3,0.9,9.1,65.8,10.8,78.7C398.9,439.6,398.6,439.9,398.2,440C398.2,440,398.2,440,398.2,440z"/>
	</g>
	<g>
		<path class="st28" d="M391.9,348.1c-0.2,0-0.4-0.1-0.5-0.3c-0.2-0.3-0.1-0.7,0.2-0.8c0.2-0.1,18.4-11.2,29.8-15.8
			c0.3-0.1,0.7,0,0.8,0.3c0.1,0.3,0,0.7-0.3,0.8c-11.3,4.6-29.4,15.6-29.6,15.7C392.1,348,392,348.1,391.9,348.1z"/>
	</g>
</g>
<path class="st39" d="M22.6,489.1c6.1,0,703.9,0,703.9,0"/>
</svg>
